<?xml version="1.0" encoding="utf-8"?>
<svg viewBox="0 0 2000 2000" width="73px" height="63px" xmlns="http://www.w3.org/2000/svg">
  <g id="WiP" stroke="none" stroke-width="1" fill="none" fill-rule="evenodd">
        <g id="Artboard" >
            <g id="Group" >
    <path d="M1255 1821 c-343 -178 -523 -299 -661 -442 -130 -136 -144 -166 -99 -209 20 -19 30 -22 62 -16 21 4 46 8 56 7 9 0 15 4 12 8 -2 5 21 19 53 32 31 12 62 25 67 29 6 3 38 15 73 26 34 10 62 22 62 26 0 3 15 10 33 13 17 4 64 18 102 30 61 21 208 60 299 80 64 14 11 15 -110 1 -138 -16 -314 -60 -479 -121 -119 -44 -195 -66 -195 -56 0 4 6 13 13 20 10 11 9 12 -1 6 -11 -6 -12 -3 -3 13 13 24 113 115 193 174 29 22 55 43 58 47 3 4 13 10 22 14 12 4 15 2 11 -9 -8 -21 0 -18 74 30 115 74 162 93 149 60 -10 -27 44 -111 65 -99 5 4 9 16 9 29 0 50 152 216 258 280 61 37 71 52 56 90 -3 9 -11 16 -18 16 -6 0 -78 -36 -161 -79z m-385 -296 c-7 -8 -18 -15 -24 -15 -6 0 -2 7 8 15 25 19 32 19 16 0z" style="fill: rgb(255, 255, 255);"/>
    <path d="M786 1464 c-11 -8 -16 -14 -10 -14 13 0 39 18 34 24 -3 2 -14 -2 -24 -10z"/>
    <path d="M1080 1071 c79 -15 -87 -23 -237 -11 -113 9 -172 9 -243 1 -107 -13 -126 -21 -54 -21 27 0 128 -5 224 -10 415 -24 654 -30 662 -17 13 21 9 55 -8 61 -9 3 -97 5 -197 5 -100 -1 -166 -5 -147 -8z" style="fill: rgb(255, 0, 0);"/>
    <path d="M993 1063 c9 -2 25 -2 35 0 9 3 1 5 -18 5 -19 0 -27 -2 -17 -5z"/>
    <path d="M1250 856 c-403 -212 -607 -358 -735 -528 -51 -69 -55 -94 -17 -124 25 -20 31 -21 87 -9 33 6 54 14 46 16 -10 4 104 56 139 65 3 0 14 4 25 8 11 5 27 10 35 14 8 3 19 4 24 3 4 -1 15 4 23 11 9 7 41 21 72 30 119 38 302 88 323 89 13 0 32 5 43 10 13 6 -17 7 -85 3 -124 -7 -298 -49 -505 -122 -168 -59 -205 -69 -188 -51 17 17 17 32 1 23 -16 -10 8 22 42 56 14 13 59 53 100 88 41 34 86 71 98 82 27 23 39 25 45 8 2 -9 22 -1 59 23 53 36 151 89 163 89 4 0 4 -9 0 -19 -7 -23 40 -104 58 -98 6 2 15 19 20 38 16 63 148 202 260 273 31 20 57 44 57 52 0 19 -18 54 -28 53 -4 -1 -77 -38 -162 -83z m-380 -291 c-7 -8 -17 -15 -23 -15 -6 0 -2 7 9 15 25 19 30 19 14 0z" style="fill: rgb(255, 255, 255);"/>
    <path d="M779 493 c-13 -15 -12 -15 9 -4 23 12 28 21 13 21 -5 0 -15 -7 -22 -17z"/>
  </g>
        </g>
    </g>
</svg>